<?xml version="1.0" standalone="no"?>
<!DOCTYPE svg PUBLIC "-//W3C//DTD SVG 20010904//EN"
 "http://www.w3.org/TR/2001/REC-SVG-20010904/DTD/svg10.dtd">
<svg version="1.0" xmlns="http://www.w3.org/2000/svg"
 width="225.000000pt" height="225.000000pt" viewBox="0 0 225.000000 225.000000"
 preserveAspectRatio="xMidYMid meet">

<g transform="translate(0.000000,225.000000) scale(0.100000,-0.100000)"
fill="#000000" stroke="none">
<path d="M819 2057 c-75 -28 -93 -48 -174 -204 -49 -94 -63 -113 -82 -113 -22
0 -23 4 -23 69 0 63 -2 71 -26 90 -24 19 -40 21 -155 21 -180 0 -186 -4 -191
-123 -3 -59 -3 -59 -41 -72 -45 -15 -82 -47 -105 -90 -15 -27 -17 -93 -17
-665 0 -349 3 -647 8 -663 12 -42 74 -105 115 -117 23 -6 284 -10 703 -10 580
0 668 2 679 15 7 8 27 15 45 15 20 0 35 -6 39 -15 5 -13 42 -15 248 -15 134 0
259 5 280 10 41 12 103 75 115 117 5 16 8 314 8 663 0 572 -2 638 -17 665 -23
43 -60 75 -105 90 -35 12 -38 16 -44 60 -8 71 -18 75 -186 75 -130 0 -145 -2
-163 -20 -13 -13 -20 -33 -20 -60 0 -35 -3 -40 -23 -40 -18 0 -31 17 -71 93
-77 146 -102 181 -148 208 -43 24 -46 24 -328 26 -215 2 -294 -1 -321 -10z
m-349 -262 l0 -55 -115 0 -115 0 0 55 0 55 115 0 115 0 0 -55z m1540 -30 l0
-25 -115 0 -115 0 0 25 0 25 115 0 115 0 0 -25z m110 -110 c53 -27 60 -56 60
-245 l0 -170 -297 0 -296 0 -61 58 c-34 32 -82 71 -107 85 -216 126 -497 92
-681 -84 l-63 -59 -303 0 -303 0 3 184 c3 167 5 186 23 206 11 12 29 26 40 31
11 4 456 8 988 8 847 1 972 -1 997 -14z m-838 -285 c269 -83 420 -379 328
-644 -77 -225 -311 -370 -543 -337 -209 29 -385 190 -428 391 -6 30 -9 94 -7
146 4 76 11 104 37 159 65 141 164 233 299 281 88 31 221 33 314 4z m668 -840
l0 -50 -85 0 -85 0 0 50 0 50 85 0 85 0 0 -50z"/>
<path d="M187 1572 c-13 -14 -17 -39 -17 -105 0 -129 -4 -127 218 -127 174 0
179 1 200 23 19 20 22 35 22 103 0 128 6 124 -219 124 -169 0 -190 -2 -204
-18z m353 -107 l0 -66 -152 3 -153 3 -3 63 -3 62 156 0 155 0 0 -65z"/>
<path d="M1839 1544 c-23 -28 1 -49 60 -52 56 -3 81 9 81 38 0 23 -20 30 -80
30 -31 0 -52 -5 -61 -16z"/>
<path d="M1754 1405 c-3 -8 -3 -22 0 -30 5 -13 24 -15 113 -13 108 3 108 3
108 28 0 25 0 25 -108 28 -89 2 -108 0 -113 -13z"/>
<path d="M1031 1285 c-163 -46 -273 -168 -302 -334 -26 -148 45 -311 176 -401
116 -80 277 -92 403 -29 86 42 155 111 195 197 30 62 32 75 32 172 0 87 -4
113 -22 153 -16 34 -28 47 -43 47 -31 0 -35 -26 -14 -84 79 -217 -89 -459
-319 -458 -137 0 -252 70 -312 189 -27 52 -30 68 -30 153 0 89 2 99 34 158 60
111 154 171 278 180 91 6 148 -9 225 -61 48 -32 61 -37 73 -27 24 20 18 36
-27 74 -82 71 -236 102 -347 71z"/>
</g>
</svg>
